<svg width="64" height="64" viewBox="0 0 64 64" fill="none" xmlns="http://www.w3.org/2000/svg">
<circle cx="32" cy="32" r="32" fill="#A91079"/>
<g clip-path="url(#clip0_4_91)">
<path d="M32 20C28.7435 20 28.334 20.015 27.0545 20.072C25.775 20.132 24.9035 20.333 24.14 20.63C23.3391 20.9312 22.6137 21.4037 22.0145 22.0145C21.4041 22.614 20.9317 23.3394 20.63 24.14C20.333 24.902 20.1305 25.775 20.072 27.05C20.015 28.3325 20 28.7405 20 32.0015C20 35.2595 20.015 35.6675 20.072 36.947C20.132 38.225 20.333 39.0965 20.63 39.86C20.9375 40.649 21.347 41.318 22.0145 41.9855C22.6805 42.653 23.3495 43.064 24.1385 43.37C24.9035 43.667 25.7735 43.8695 27.0515 43.928C28.3325 43.985 28.7405 44 32 44C35.2595 44 35.666 43.985 36.947 43.928C38.2235 43.868 39.098 43.667 39.8615 43.37C40.6618 43.0686 41.3867 42.5961 41.9855 41.9855C42.653 41.318 43.0625 40.649 43.37 39.86C43.6655 39.0965 43.868 38.225 43.928 36.947C43.985 35.6675 44 35.2595 44 32C44 28.7405 43.985 28.3325 43.928 27.0515C43.868 25.775 43.6655 24.902 43.37 24.14C43.0684 23.3393 42.5959 22.614 41.9855 22.0145C41.3864 21.4035 40.661 20.931 39.86 20.63C39.095 20.333 38.222 20.1305 36.9455 20.072C35.6645 20.015 35.258 20 31.997 20H32.0015H32ZM30.9245 22.163H32.0015C35.2055 22.163 35.585 22.1735 36.8495 22.232C38.0195 22.2845 38.6555 22.481 39.0785 22.6445C39.638 22.862 40.0385 23.123 40.4585 23.543C40.8785 23.963 41.138 24.362 41.3555 24.923C41.5205 25.3445 41.7155 25.9805 41.768 27.1505C41.8265 28.415 41.8385 28.7945 41.8385 31.997C41.8385 35.1995 41.8265 35.5805 41.768 36.845C41.7155 38.015 41.519 38.6495 41.3555 39.0725C41.1631 39.5935 40.856 40.0647 40.457 40.451C40.037 40.871 39.638 41.1305 39.077 41.348C38.657 41.513 38.021 41.708 36.8495 41.762C35.585 41.819 35.2055 41.8325 32.0015 41.8325C28.7975 41.8325 28.4165 41.819 27.152 41.762C25.982 41.708 25.3475 41.513 24.9245 41.348C24.4032 41.1559 23.9317 40.8494 23.5445 40.451C23.1451 40.0641 22.8376 39.5925 22.6445 39.071C22.481 38.6495 22.2845 38.0135 22.232 36.8435C22.175 35.579 22.163 35.1995 22.163 31.994C22.163 28.79 22.175 28.412 22.232 27.1475C22.286 25.9775 22.481 25.3415 22.646 24.9185C22.8635 24.359 23.1245 23.9585 23.5445 23.5385C23.9645 23.1185 24.3635 22.859 24.9245 22.6415C25.3475 22.4765 25.982 22.2815 27.152 22.2275C28.259 22.1765 28.688 22.1615 30.9245 22.16V22.163ZM38.4065 24.155C38.2174 24.155 38.0301 24.1922 37.8554 24.2646C37.6807 24.337 37.522 24.443 37.3883 24.5768C37.2545 24.7105 37.1485 24.8692 37.0761 25.0439C37.0037 25.2186 36.9665 25.4059 36.9665 25.595C36.9665 25.7841 37.0037 25.9714 37.0761 26.1461C37.1485 26.3208 37.2545 26.4795 37.3883 26.6132C37.522 26.747 37.6807 26.853 37.8554 26.9254C38.0301 26.9978 38.2174 27.035 38.4065 27.035C38.7884 27.035 39.1547 26.8833 39.4247 26.6132C39.6948 26.3432 39.8465 25.9769 39.8465 25.595C39.8465 25.2131 39.6948 24.8468 39.4247 24.5768C39.1547 24.3067 38.7884 24.155 38.4065 24.155ZM32.0015 25.838C31.1841 25.8252 30.3723 25.9752 29.6135 26.2792C28.8546 26.5832 28.1638 27.0351 27.5812 27.6086C26.9987 28.1822 26.536 28.8659 26.2203 29.6199C25.9045 30.3739 25.7419 31.1833 25.7419 32.0007C25.7419 32.8182 25.9045 33.6276 26.2203 34.3816C26.536 35.1356 26.9987 35.8193 27.5812 36.3929C28.1638 36.9664 28.8546 37.4183 29.6135 37.7223C30.3723 38.0263 31.1841 38.1763 32.0015 38.1635C33.6193 38.1383 35.1623 37.4779 36.2975 36.3249C37.4326 35.1719 38.0689 33.6188 38.0689 32.0007C38.0689 30.3827 37.4326 28.8296 36.2975 27.6766C35.1623 26.5236 33.6193 25.8632 32.0015 25.838ZM32.0015 27.9995C33.0625 27.9995 34.08 28.421 34.8303 29.1712C35.5805 29.9215 36.002 30.939 36.002 32C36.002 33.061 35.5805 34.0785 34.8303 34.8288C34.08 35.579 33.0625 36.0005 32.0015 36.0005C30.9405 36.0005 29.923 35.579 29.1727 34.8288C28.4225 34.0785 28.001 33.061 28.001 32C28.001 30.939 28.4225 29.9215 29.1727 29.1712C29.923 28.421 30.9405 27.9995 32.0015 27.9995Z" fill="#EEEEEE"/>
</g>
<defs>
<clipPath id="clip0_4_91">
<rect width="24" height="24" fill="white" transform="translate(20 20)"/>
</clipPath>
</defs>
</svg>
